<svg width="27" height="21" viewBox="0 0 27 21" fill="none" xmlns="http://www.w3.org/2000/svg">
<path d="M0.333313 10.5C0.333313 4.97715 4.81047 0.5 10.3333 0.5H16.3333C21.8562 0.5 26.3333 4.97715 26.3333 10.5C26.3333 16.0228 21.8562 20.5 16.3333 20.5H10.3333C4.81046 20.5 0.333313 16.0228 0.333313 10.5Z" fill="white"/>
<path d="M9.78963 7.68182L11.409 12.4205H11.4743L13.0936 7.68182H14.0425L11.9487 13.5H10.9345L8.84077 7.68182H9.78963ZM17.0105 7.68182V13.5H16.1298V8.5625H16.0957L14.7037 9.47159V8.63068L16.1554 7.68182H17.0105Z" fill="#737373"/>
<path d="M10.3333 1.5H16.3333V-0.5H10.3333V1.5ZM16.3333 19.5H10.3333V21.5H16.3333V19.5ZM10.3333 19.5C5.36275 19.5 1.33331 15.4706 1.33331 10.5H-0.666687C-0.666687 16.5751 4.25818 21.5 10.3333 21.5V19.5ZM25.3333 10.5C25.3333 15.4706 21.3039 19.5 16.3333 19.5V21.5C22.4084 21.5 27.3333 16.5751 27.3333 10.5H25.3333ZM16.3333 1.5C21.3039 1.5 25.3333 5.52944 25.3333 10.5H27.3333C27.3333 4.42487 22.4084 -0.5 16.3333 -0.5V1.5ZM10.3333 -0.5C4.25818 -0.5 -0.666687 4.42487 -0.666687 10.5H1.33331C1.33331 5.52944 5.36275 1.5 10.3333 1.5V-0.5Z" fill="#D4D4D4"/>
</svg>
