<svg width="9" height="10" viewBox="0 0 9 10" fill="none" xmlns="http://www.w3.org/2000/svg">
<path d="M0.5 2C0.5 1.44772 0.947715 1 1.5 1H2.5C3.05228 1 3.5 1.44772 3.5 2V3C3.5 3.55228 3.05228 4 2.5 4H1.5C0.947715 4 0.5 3.55228 0.5 3V2Z" stroke="#F2683A" stroke-linecap="round" stroke-linejoin="round"/>
<path d="M5.5 2C5.5 1.44772 5.94772 1 6.5 1H7.5C8.05228 1 8.5 1.44772 8.5 2V3C8.5 3.55228 8.05228 4 7.5 4H6.5C5.94772 4 5.5 3.55228 5.5 3V2Z" stroke="#F2683A" stroke-linecap="round" stroke-linejoin="round"/>
<path d="M0.5 7C0.5 6.44772 0.947715 6 1.5 6H2.5C3.05228 6 3.5 6.44772 3.5 7V8C3.5 8.55228 3.05228 9 2.5 9H1.5C0.947715 9 0.5 8.55228 0.5 8V7Z" stroke="#F2683A" stroke-linecap="round" stroke-linejoin="round"/>
<path d="M5.5 7C5.5 6.44772 5.94772 6 6.5 6H7.5C8.05228 6 8.5 6.44772 8.5 7V8C8.5 8.55228 8.05228 9 7.5 9H6.5C5.94772 9 5.5 8.55228 5.5 8V7Z" stroke="#F2683A" stroke-linecap="round" stroke-linejoin="round"/>
</svg>
