<svg width="282" height="13" viewBox="0 0 282 13" fill="none" xmlns="http://www.w3.org/2000/svg">
<path d="M4.344 5.556C4.344 6.02 4.184 6.40667 3.864 6.716C3.54933 7.02 3.06667 7.172 2.416 7.172H1.344V9.5H0.616V3.924H2.416C3.04533 3.924 3.52267 4.076 3.848 4.38C4.17867 4.684 4.344 5.076 4.344 5.556ZM2.416 6.572C2.82133 6.572 3.12 6.484 3.312 6.308C3.504 6.132 3.6 5.88133 3.6 5.556C3.6 4.868 3.20533 4.524 2.416 4.524H1.344V6.572H2.416ZM5.97681 5.828C6.10481 5.57733 6.28615 5.38267 6.52081 5.244C6.76081 5.10533 7.05148 5.036 7.39281 5.036V5.788H7.20081C6.38481 5.788 5.97681 6.23067 5.97681 7.116V9.5H5.24881V5.116H5.97681V5.828ZM10.1452 9.572C9.73452 9.572 9.36119 9.47867 9.02519 9.292C8.69452 9.10533 8.43319 8.84133 8.24119 8.5C8.05452 8.15333 7.96119 7.75333 7.96119 7.3C7.96119 6.852 8.05719 6.45733 8.24919 6.116C8.44652 5.76933 8.71319 5.50533 9.04919 5.324C9.38519 5.13733 9.76119 5.044 10.1772 5.044C10.5932 5.044 10.9692 5.13733 11.3052 5.324C11.6412 5.50533 11.9052 5.76667 12.0972 6.108C12.2945 6.44933 12.3932 6.84667 12.3932 7.3C12.3932 7.75333 12.2919 8.15333 12.0892 8.5C11.8919 8.84133 11.6225 9.10533 11.2812 9.292C10.9399 9.47867 10.5612 9.572 10.1452 9.572ZM10.1452 8.932C10.4065 8.932 10.6519 8.87067 10.8812 8.748C11.1105 8.62533 11.2945 8.44133 11.4332 8.196C11.5772 7.95067 11.6492 7.652 11.6492 7.3C11.6492 6.948 11.5799 6.64933 11.4412 6.404C11.3025 6.15867 11.1212 5.97733 10.8972 5.86C10.6732 5.73733 10.4305 5.676 10.1692 5.676C9.90252 5.676 9.65719 5.73733 9.43319 5.86C9.21452 5.97733 9.03852 6.15867 8.90519 6.404C8.77185 6.64933 8.70519 6.948 8.70519 7.3C8.70519 7.65733 8.76919 7.95867 8.89719 8.204C9.03052 8.44933 9.20652 8.63333 9.42519 8.756C9.64385 8.87333 9.88385 8.932 10.1452 8.932ZM15.1584 5.044C15.537 5.044 15.8677 5.12667 16.1504 5.292C16.4384 5.45733 16.6517 5.66533 16.7904 5.916V5.116H17.5264V9.596C17.5264 9.996 17.441 10.3507 17.2704 10.66C17.0997 10.9747 16.8544 11.22 16.5344 11.396C16.2197 11.572 15.8517 11.66 15.4304 11.66C14.8544 11.66 14.3744 11.524 13.9904 11.252C13.6064 10.98 13.3797 10.6093 13.3104 10.14H14.0304C14.1104 10.4067 14.2757 10.62 14.5264 10.78C14.777 10.9453 15.0784 11.028 15.4304 11.028C15.8304 11.028 16.1557 10.9027 16.4064 10.652C16.6624 10.4013 16.7904 10.0493 16.7904 9.596V8.676C16.6464 8.932 16.433 9.14533 16.1504 9.316C15.8677 9.48667 15.537 9.572 15.1584 9.572C14.769 9.572 14.4144 9.476 14.0944 9.284C13.7797 9.092 13.5317 8.82267 13.3504 8.476C13.169 8.12933 13.0784 7.73467 13.0784 7.292C13.0784 6.844 13.169 6.452 13.3504 6.116C13.5317 5.77467 13.7797 5.51067 14.0944 5.324C14.4144 5.13733 14.769 5.044 15.1584 5.044ZM16.7904 7.3C16.7904 6.96933 16.7237 6.68133 16.5904 6.436C16.457 6.19067 16.2757 6.004 16.0464 5.876C15.8224 5.74267 15.5744 5.676 15.3024 5.676C15.0304 5.676 14.7824 5.74 14.5584 5.868C14.3344 5.996 14.1557 6.18267 14.0224 6.428C13.889 6.67333 13.8224 6.96133 13.8224 7.292C13.8224 7.628 13.889 7.92133 14.0224 8.172C14.1557 8.41733 14.3344 8.60667 14.5584 8.74C14.7824 8.868 15.0304 8.932 15.3024 8.932C15.5744 8.932 15.8224 8.868 16.0464 8.74C16.2757 8.60667 16.457 8.41733 16.5904 8.172C16.7237 7.92133 16.7904 7.63067 16.7904 7.3ZM19.4846 5.828C19.6126 5.57733 19.794 5.38267 20.0286 5.244C20.2686 5.10533 20.5593 5.036 20.9006 5.036V5.788H20.7086C19.8926 5.788 19.4846 6.23067 19.4846 7.116V9.5H18.7566V5.116H19.4846V5.828ZM25.741 7.14C25.741 7.27867 25.733 7.42533 25.717 7.58H22.213C22.2397 8.012 22.3863 8.35067 22.653 8.596C22.925 8.836 23.253 8.956 23.637 8.956C23.9517 8.956 24.213 8.884 24.421 8.74C24.6343 8.59067 24.7837 8.39333 24.869 8.148H25.653C25.5357 8.56933 25.301 8.91333 24.949 9.18C24.597 9.44133 24.1597 9.572 23.637 9.572C23.221 9.572 22.8477 9.47867 22.517 9.292C22.1917 9.10533 21.9357 8.84133 21.749 8.5C21.5623 8.15333 21.469 7.75333 21.469 7.3C21.469 6.84667 21.5597 6.44933 21.741 6.108C21.9223 5.76667 22.1757 5.50533 22.501 5.324C22.8317 5.13733 23.2103 5.044 23.637 5.044C24.053 5.044 24.421 5.13467 24.741 5.316C25.061 5.49733 25.3063 5.748 25.477 6.068C25.653 6.38267 25.741 6.74 25.741 7.14ZM24.989 6.988C24.989 6.71067 24.9277 6.47333 24.805 6.276C24.6823 6.07333 24.5143 5.92133 24.301 5.82C24.093 5.71333 23.861 5.66 23.605 5.66C23.237 5.66 22.9223 5.77733 22.661 6.012C22.405 6.24667 22.2583 6.572 22.221 6.988H24.989ZM28.2539 9.572C27.9179 9.572 27.6166 9.516 27.3499 9.404C27.0833 9.28667 26.8726 9.12667 26.7179 8.924C26.5633 8.716 26.4779 8.47867 26.4619 8.212H27.2139C27.2353 8.43067 27.3366 8.60933 27.5179 8.748C27.7046 8.88667 27.9473 8.956 28.2459 8.956C28.5233 8.956 28.7419 8.89467 28.9019 8.772C29.0619 8.64933 29.1419 8.49467 29.1419 8.308C29.1419 8.116 29.0566 7.97467 28.8859 7.884C28.7153 7.788 28.4513 7.69467 28.0939 7.604C27.7686 7.51867 27.5019 7.43333 27.2939 7.348C27.0913 7.25733 26.9153 7.12667 26.7659 6.956C26.6219 6.78 26.5499 6.55067 26.5499 6.268C26.5499 6.044 26.6166 5.83867 26.7499 5.652C26.8833 5.46533 27.0726 5.31867 27.3179 5.212C27.5633 5.1 27.8433 5.044 28.1579 5.044C28.6433 5.044 29.0353 5.16667 29.3339 5.412C29.6326 5.65733 29.7926 5.99333 29.8139 6.42H29.0859C29.0699 6.19067 28.9766 6.00667 28.8059 5.868C28.6406 5.72933 28.4166 5.66 28.1339 5.66C27.8726 5.66 27.6646 5.716 27.5099 5.828C27.3553 5.94 27.2779 6.08667 27.2779 6.268C27.2779 6.412 27.3233 6.532 27.4139 6.628C27.5099 6.71867 27.6273 6.79333 27.7659 6.852C27.9099 6.90533 28.1073 6.96667 28.3579 7.036C28.6726 7.12133 28.9286 7.20667 29.1259 7.292C29.3233 7.372 29.4913 7.49467 29.6299 7.66C29.7739 7.82533 29.8486 8.04133 29.8539 8.308C29.8539 8.548 29.7873 8.764 29.6539 8.956C29.5206 9.148 29.3313 9.3 29.0859 9.412C28.8459 9.51867 28.5686 9.572 28.2539 9.572ZM32.4336 9.572C32.0976 9.572 31.7963 9.516 31.5296 9.404C31.263 9.28667 31.0523 9.12667 30.8976 8.924C30.743 8.716 30.6576 8.47867 30.6416 8.212H31.3936C31.415 8.43067 31.5163 8.60933 31.6976 8.748C31.8843 8.88667 32.127 8.956 32.4256 8.956C32.703 8.956 32.9216 8.89467 33.0816 8.772C33.2416 8.64933 33.3216 8.49467 33.3216 8.308C33.3216 8.116 33.2363 7.97467 33.0656 7.884C32.895 7.788 32.631 7.69467 32.2736 7.604C31.9483 7.51867 31.6816 7.43333 31.4736 7.348C31.271 7.25733 31.095 7.12667 30.9456 6.956C30.8016 6.78 30.7296 6.55067 30.7296 6.268C30.7296 6.044 30.7963 5.83867 30.9296 5.652C31.063 5.46533 31.2523 5.31867 31.4976 5.212C31.743 5.1 32.023 5.044 32.3376 5.044C32.823 5.044 33.215 5.16667 33.5136 5.412C33.8123 5.65733 33.9723 5.99333 33.9936 6.42H33.2656C33.2496 6.19067 33.1563 6.00667 32.9856 5.868C32.8203 5.72933 32.5963 5.66 32.3136 5.66C32.0523 5.66 31.8443 5.716 31.6896 5.828C31.535 5.94 31.4576 6.08667 31.4576 6.268C31.4576 6.412 31.503 6.532 31.5936 6.628C31.6896 6.71867 31.807 6.79333 31.9456 6.852C32.0896 6.90533 32.287 6.96667 32.5376 7.036C32.8523 7.12133 33.1083 7.20667 33.3056 7.292C33.503 7.372 33.671 7.49467 33.8096 7.66C33.9536 7.82533 34.0283 8.04133 34.0336 8.308C34.0336 8.548 33.967 8.764 33.8336 8.956C33.7003 9.148 33.511 9.3 33.2656 9.412C33.0256 9.51867 32.7483 9.572 32.4336 9.572ZM36.9733 9.572C36.5626 9.572 36.1893 9.47867 35.8533 9.292C35.5226 9.10533 35.2613 8.84133 35.0693 8.5C34.8826 8.15333 34.7893 7.75333 34.7893 7.3C34.7893 6.852 34.8853 6.45733 35.0773 6.116C35.2746 5.76933 35.5413 5.50533 35.8773 5.324C36.2133 5.13733 36.5893 5.044 37.0053 5.044C37.4213 5.044 37.7973 5.13733 38.1333 5.324C38.4693 5.50533 38.7333 5.76667 38.9253 6.108C39.1226 6.44933 39.2213 6.84667 39.2213 7.3C39.2213 7.75333 39.12 8.15333 38.9173 8.5C38.72 8.84133 38.4506 9.10533 38.1093 9.292C37.768 9.47867 37.3893 9.572 36.9733 9.572ZM36.9733 8.932C37.2346 8.932 37.48 8.87067 37.7093 8.748C37.9386 8.62533 38.1226 8.44133 38.2613 8.196C38.4053 7.95067 38.4773 7.652 38.4773 7.3C38.4773 6.948 38.408 6.64933 38.2693 6.404C38.1306 6.15867 37.9493 5.97733 37.7253 5.86C37.5013 5.73733 37.2586 5.676 36.9973 5.676C36.7306 5.676 36.4853 5.73733 36.2613 5.86C36.0426 5.97733 35.8666 6.15867 35.7333 6.404C35.6 6.64933 35.5333 6.948 35.5333 7.3C35.5333 7.65733 35.5973 7.95867 35.7253 8.204C35.8586 8.44933 36.0346 8.63333 36.2533 8.756C36.472 8.87333 36.712 8.932 36.9733 8.932Z" fill="#737373"/>
<path d="M266.32 8.212V7.66L269.128 3.772H270V7.58H270.8V8.212H270V9.5H269.28V8.212H266.32ZM269.312 4.532L267.16 7.58H269.312V4.532ZM271.511 5.172C271.549 4.68133 271.738 4.29733 272.079 4.02C272.421 3.74267 272.863 3.604 273.407 3.604C273.77 3.604 274.082 3.67067 274.343 3.804C274.61 3.932 274.81 4.108 274.943 4.332C275.082 4.556 275.151 4.80933 275.151 5.092C275.151 5.42267 275.055 5.708 274.863 5.948C274.677 6.188 274.431 6.34267 274.127 6.412V6.452C274.474 6.53733 274.749 6.70533 274.951 6.956C275.154 7.20667 275.255 7.53467 275.255 7.94C275.255 8.244 275.186 8.51867 275.047 8.764C274.909 9.004 274.701 9.19333 274.423 9.332C274.146 9.47067 273.813 9.54 273.423 9.54C272.858 9.54 272.394 9.39333 272.031 9.1C271.669 8.80133 271.466 8.38 271.423 7.836H272.127C272.165 8.156 272.295 8.41733 272.519 8.62C272.743 8.82267 273.042 8.924 273.415 8.924C273.789 8.924 274.071 8.828 274.263 8.636C274.461 8.43867 274.559 8.18533 274.559 7.876C274.559 7.476 274.426 7.188 274.159 7.012C273.893 6.836 273.49 6.748 272.951 6.748H272.767V6.14H272.959C273.45 6.13467 273.821 6.05467 274.071 5.9C274.322 5.74 274.447 5.49467 274.447 5.164C274.447 4.88133 274.354 4.65467 274.167 4.484C273.986 4.31333 273.725 4.228 273.383 4.228C273.053 4.228 272.786 4.31333 272.583 4.484C272.381 4.65467 272.261 4.884 272.223 5.172H271.511ZM276.078 5.02C276.078 4.65733 276.188 4.36933 276.406 4.156C276.625 3.93733 276.905 3.828 277.246 3.828C277.588 3.828 277.868 3.93733 278.086 4.156C278.305 4.36933 278.414 4.65733 278.414 5.02C278.414 5.388 278.305 5.68133 278.086 5.9C277.868 6.11333 277.588 6.22 277.246 6.22C276.905 6.22 276.625 6.11333 276.406 5.9C276.188 5.68133 276.078 5.388 276.078 5.02ZM280.75 3.916L277.51 9.5H276.79L280.03 3.916H280.75ZM277.246 4.276C277.065 4.276 276.921 4.34 276.814 4.468C276.713 4.59067 276.662 4.77467 276.662 5.02C276.662 5.26533 276.713 5.452 276.814 5.58C276.921 5.708 277.065 5.772 277.246 5.772C277.428 5.772 277.572 5.708 277.678 5.58C277.785 5.44667 277.838 5.26 277.838 5.02C277.838 4.77467 277.785 4.59067 277.678 4.468C277.572 4.34 277.428 4.276 277.246 4.276ZM279.142 8.396C279.142 8.028 279.252 7.73733 279.47 7.524C279.689 7.30533 279.969 7.196 280.31 7.196C280.652 7.196 280.929 7.30533 281.142 7.524C281.361 7.73733 281.47 8.028 281.47 8.396C281.47 8.75867 281.361 9.04933 281.142 9.268C280.929 9.48667 280.652 9.596 280.31 9.596C279.969 9.596 279.689 9.48933 279.47 9.276C279.252 9.05733 279.142 8.764 279.142 8.396ZM280.302 7.652C280.121 7.652 279.977 7.716 279.87 7.844C279.764 7.96667 279.71 8.15067 279.71 8.396C279.71 8.636 279.764 8.82 279.87 8.948C279.977 9.07067 280.121 9.132 280.302 9.132C280.484 9.132 280.628 9.07067 280.734 8.948C280.841 8.82 280.894 8.636 280.894 8.396C280.894 8.15067 280.841 7.96667 280.734 7.844C280.628 7.716 280.484 7.652 280.302 7.652Z" fill="#737373"/>
</svg>
