<svg width="21" height="21" viewBox="0 0 21 21" fill="none" xmlns="http://www.w3.org/2000/svg">
<circle cx="10.6667" cy="10.5" r="10" fill="#EDE9FE"/>
<path d="M9.87246 8.5V9.16906H7.56021V10.6439H9.36298V11.3129H7.56021V13.5H6.66666V8.5H9.87246Z" fill="#8B5CF6"/>
<path d="M13.6163 10.9317C13.909 10.9796 14.1572 11.1211 14.361 11.3561C14.5648 11.5911 14.6667 11.8573 14.6667 12.1547C14.6667 12.4089 14.5935 12.6391 14.4472 12.8453C14.3061 13.0468 14.0997 13.2074 13.828 13.3273C13.5563 13.4424 13.2401 13.5 12.8796 13.5H10.7006V8.5H12.7777C13.1487 8.5 13.4674 8.55755 13.7339 8.67266C14.0004 8.78777 14.2016 8.94365 14.3375 9.14029C14.4733 9.33213 14.5412 9.54796 14.5412 9.78777C14.5412 10.0755 14.4576 10.3153 14.2904 10.5072C14.1232 10.699 13.8985 10.8405 13.6163 10.9317ZM11.5941 10.6007H12.6993C12.9919 10.6007 13.2192 10.5408 13.3812 10.4209C13.5484 10.2962 13.632 10.1187 13.632 9.88849C13.632 9.66307 13.5484 9.48801 13.3812 9.36331C13.2192 9.23381 12.9919 9.16906 12.6993 9.16906H11.5941V10.6007ZM12.8012 12.8309C13.1043 12.8309 13.342 12.7638 13.5144 12.6295C13.6869 12.4952 13.7731 12.3082 13.7731 12.0683C13.7731 11.8237 13.6817 11.6295 13.4988 11.4856C13.3159 11.3417 13.0729 11.2698 12.7698 11.2698H11.5941V12.8309H12.8012Z" fill="#8B5CF6"/>
</svg>
