<svg width="43" height="21" viewBox="0 0 43 21" fill="none" xmlns="http://www.w3.org/2000/svg">
<path d="M0.333313 10.5C0.333313 4.97715 4.81047 0.5 10.3333 0.5H32.3333C37.8562 0.5 42.3333 4.97715 42.3333 10.5C42.3333 16.0228 37.8562 20.5 32.3333 20.5H10.3333C4.81046 20.5 0.333313 16.0228 0.333313 10.5Z" fill="white"/>
<path d="M13.2577 9.51989C13.2027 9.34754 13.1289 9.19318 13.0361 9.05682C12.9452 8.91856 12.8363 8.80114 12.7094 8.70455C12.5825 8.60606 12.4376 8.53125 12.2747 8.48011C12.1137 8.42898 11.9367 8.40341 11.7435 8.40341C11.4158 8.40341 11.1204 8.48769 10.8571 8.65625C10.5938 8.82481 10.3855 9.07197 10.2321 9.39773C10.0806 9.72159 10.0048 10.1184 10.0048 10.5881C10.0048 11.0597 10.0815 11.4583 10.2349 11.7841C10.3884 12.1098 10.5986 12.357 10.8656 12.5256C11.1327 12.6941 11.4367 12.7784 11.7776 12.7784C12.0938 12.7784 12.3694 12.714 12.6043 12.5852C12.841 12.4564 13.0238 12.2746 13.1526 12.0398C13.2832 11.803 13.3486 11.5246 13.3486 11.2045L13.5759 11.2472H11.9111V10.5227H14.198V11.1847C14.198 11.6733 14.0938 12.0975 13.8855 12.4574C13.6791 12.8153 13.3931 13.0919 13.0276 13.2869C12.6639 13.482 12.2473 13.5795 11.7776 13.5795C11.251 13.5795 10.7889 13.4583 10.3912 13.2159C9.99536 12.9735 9.68665 12.6297 9.46506 12.1847C9.24347 11.7377 9.13267 11.2074 9.13267 10.5938C9.13267 10.1297 9.19707 9.71307 9.32586 9.34375C9.45464 8.97443 9.63551 8.66098 9.86847 8.40341C10.1033 8.14394 10.3789 7.94602 10.6952 7.80966C11.0134 7.6714 11.3609 7.60227 11.7378 7.60227C12.0522 7.60227 12.3448 7.64867 12.6156 7.74148C12.8884 7.83428 13.1308 7.96591 13.3429 8.13636C13.5569 8.30682 13.734 8.50947 13.8742 8.74432C14.0143 8.97727 14.109 9.2358 14.1582 9.51989H13.2577ZM15.3124 13.5V7.68182H18.9601V8.4375H16.1902V10.2102H18.7697V10.9631H16.1902V12.7443H18.9942V13.5H15.3124ZM20.1327 13.5V7.68182H22.2065C22.6573 7.68182 23.0313 7.75947 23.3287 7.91477C23.6279 8.07008 23.8514 8.28504 23.9992 8.55966C24.1469 8.83239 24.2207 9.14773 24.2207 9.50568C24.2207 9.86174 24.1459 10.1752 23.9963 10.446C23.8486 10.715 23.6251 10.9242 23.3259 11.0739C23.0285 11.2235 22.6545 11.2983 22.2037 11.2983H20.6327V10.5426H22.1242C22.4082 10.5426 22.6393 10.5019 22.8173 10.4205C22.9973 10.339 23.1289 10.2206 23.2122 10.0653C23.2956 9.91004 23.3372 9.72348 23.3372 9.50568C23.3372 9.28598 23.2946 9.09564 23.2094 8.93466C23.126 8.77367 22.9944 8.65057 22.8145 8.56534C22.6365 8.47822 22.4026 8.43466 22.1128 8.43466H21.0105V13.5H20.1327ZM23.0048 10.875L24.4423 13.5H23.4423L22.0332 10.875H23.0048ZM25.2889 13.5V7.68182H28.9367V8.4375H26.1668V10.2102H28.7463V10.9631H26.1668V12.7443H28.9707V13.5H25.2889ZM30.1092 13.5V7.68182H30.9871V12.7443H33.6234V13.5H30.1092Z" fill="#737373"/>
<path d="M10.3333 1.5H32.3333V-0.5H10.3333V1.5ZM32.3333 19.5H10.3333V21.5H32.3333V19.5ZM10.3333 19.5C5.36275 19.5 1.33331 15.4706 1.33331 10.5H-0.666687C-0.666687 16.5751 4.25818 21.5 10.3333 21.5V19.5ZM41.3333 10.5C41.3333 15.4706 37.3039 19.5 32.3333 19.5V21.5C38.4084 21.5 43.3333 16.5751 43.3333 10.5H41.3333ZM32.3333 1.5C37.3039 1.5 41.3333 5.52944 41.3333 10.5H43.3333C43.3333 4.42487 38.4084 -0.5 32.3333 -0.5V1.5ZM10.3333 -0.5C4.25818 -0.5 -0.666687 4.42487 -0.666687 10.5H1.33331C1.33331 5.52944 5.36275 1.5 10.3333 1.5V-0.5Z" fill="#D4D4D4"/>
</svg>
