<svg width="9" height="6" viewBox="0 0 9 6" fill="none" xmlns="http://www.w3.org/2000/svg">
<path d="M3.87246 0.5V1.16906H1.56021V2.64388H3.36298V3.31295H1.56021V5.5H0.666656V0.5H3.87246Z" fill="#8B5CF6"/>
<path d="M7.61634 2.93165C7.90897 2.97962 8.15718 3.1211 8.36097 3.35612C8.56476 3.59113 8.66666 3.85731 8.66666 4.15468C8.66666 4.40887 8.5935 4.63909 8.44719 4.84532C8.3061 5.04676 8.0997 5.20743 7.82797 5.32734C7.55625 5.44245 7.24011 5.5 6.87956 5.5H4.70055V0.5H6.77766C7.14867 0.5 7.46742 0.557554 7.73392 0.672662C8.00041 0.78777 8.20159 0.943645 8.33745 1.14029C8.47331 1.33213 8.54124 1.54796 8.54124 1.78777C8.54124 2.07554 8.45764 2.31535 8.29043 2.50719C8.12321 2.69904 7.89852 2.84053 7.61634 2.93165ZM5.5941 2.60072H6.69928C6.9919 2.60072 7.21921 2.54077 7.3812 2.42086C7.54841 2.29616 7.63202 2.11871 7.63202 1.88849C7.63202 1.66307 7.54841 1.48801 7.3812 1.36331C7.21921 1.23381 6.9919 1.16906 6.69928 1.16906H5.5941V2.60072ZM6.80118 4.83094C7.10425 4.83094 7.34201 4.76379 7.51445 4.6295C7.68689 4.4952 7.77311 4.30815 7.77311 4.06835C7.77311 3.82374 7.68166 3.6295 7.49877 3.48561C7.31588 3.34173 7.0729 3.26978 6.76982 3.26978H5.5941V4.83094H6.80118Z" fill="#8B5CF6"/>
</svg>
