<svg width="116" height="24" viewBox="0 0 116 24" fill="none" xmlns="http://www.w3.org/2000/svg">
<path d="M44.2846 20.2088V8.00363H50.026C50.6623 7.98697 51.282 8.07041 51.8856 8.27077C52.3096 8.42105 52.7011 8.7049 52.9784 9.07224C53.2397 9.45624 53.4189 9.89037 53.5005 10.3579C53.5986 10.9422 53.6472 11.5266 53.6472 12.111C53.6472 12.662 53.6146 13.2296 53.517 13.764C53.4514 14.2315 53.2722 14.6823 53.0109 15.0663C52.7341 15.4503 52.3587 15.7508 51.9182 15.9178C51.2985 16.1349 50.6462 16.2517 49.9935 16.2184H47.3185V20.2088H44.2846ZM47.3022 13.8808H48.8026C49.129 13.8808 49.4554 13.8641 49.7817 13.814C49.9775 13.7806 50.1567 13.6972 50.3033 13.5636C50.434 13.4133 50.5156 13.2296 50.5321 13.0293C50.5646 12.7288 50.5972 12.4282 50.5807 12.111C50.5807 11.8104 50.5646 11.4932 50.5321 11.1927C50.5156 10.9923 50.434 10.8087 50.3199 10.6584C50.1732 10.5248 49.9935 10.4413 49.7978 10.4079C49.4879 10.3579 49.1615 10.3412 48.8356 10.3412H47.2696V13.8808H47.3022Z" fill="white"/>
<path d="M55.4417 20.2088V8.00366H59.5844L61.9661 15.2499H62.0963L64.478 8.00366H68.6047V20.2088H65.7014V12.278H65.5873L62.9938 20.2088H60.971L58.4101 12.278H58.2634V20.2088H55.4417Z" fill="white"/>
<path d="M75.9121 20.3591C75.0801 20.3758 74.2647 20.309 73.4493 20.1755C72.9107 20.092 72.4051 19.8916 71.9485 19.5743C71.5731 19.2905 71.3123 18.8898 71.1657 18.439C70.9699 17.8546 70.8718 17.2536 70.8393 16.6525C70.8067 15.9512 70.7742 15.0997 70.7742 14.1146C70.7742 13.1295 70.7902 12.278 70.8393 11.5767C70.8558 10.9757 70.9699 10.3746 71.1491 9.79018C71.2963 9.33939 71.5731 8.93867 71.932 8.65482C72.389 8.33761 72.8946 8.13725 73.4327 8.05376C74.2482 7.92019 75.0801 7.8534 75.8961 7.87011C76.7115 7.8534 77.5269 7.92019 78.3424 8.05376C78.881 8.13725 79.4026 8.33761 79.8596 8.65482C80.2345 8.93867 80.5118 9.33939 80.659 9.79018C80.8382 10.3746 80.9363 10.9757 80.9689 11.5767C81.0174 12.2946 81.0339 13.1295 81.0339 14.1146C81.0339 15.0997 81.0174 15.9512 80.9689 16.6525C80.9363 17.2536 80.8382 17.8546 80.659 18.439C80.5118 18.8898 80.2345 19.2905 79.8596 19.5743C79.4026 19.8916 78.881 20.092 78.3424 20.1755C77.5434 20.309 76.7275 20.3758 75.9121 20.3591ZM75.9121 17.9715C76.255 17.9715 76.5974 17.9548 76.9237 17.9214C77.152 17.9047 77.3637 17.8212 77.5434 17.6876C77.7066 17.5374 77.8207 17.3204 77.8693 17.0866C77.9509 16.7192 78 16.3352 78 15.9512C78.0165 15.467 78.0325 14.8492 78.0325 14.0812C78.0325 13.3132 78.0325 12.6954 78 12.2112C78 11.8272 77.9509 11.4431 77.8693 11.0758C77.8207 10.8421 77.7066 10.6417 77.5434 10.4747C77.3637 10.3412 77.152 10.2577 76.9237 10.241C76.2545 10.1742 75.5697 10.1742 74.9009 10.241C74.6727 10.2577 74.4604 10.3412 74.2812 10.4747C74.118 10.625 74.0039 10.8421 73.9548 11.0758C73.8733 11.4431 73.8242 11.8272 73.8242 12.2112C73.8082 12.6954 73.7917 13.3132 73.7917 14.0812C73.7917 14.8492 73.8082 15.467 73.8242 15.9512C73.8242 16.3352 73.8733 16.7192 73.9548 17.0866C74.0039 17.3204 74.118 17.5207 74.2812 17.6876C74.4604 17.8212 74.6727 17.9047 74.9009 17.9214C75.2433 17.9715 75.5697 17.9882 75.9121 17.9715Z" fill="white"/>
<path d="M87.6725 20.359C87.2485 20.359 86.7755 20.3424 86.2534 20.3257C85.7313 20.309 85.2422 20.2756 84.7366 20.2255C84.2311 20.1754 83.7906 20.142 83.3991 20.0919V18.439C83.8231 18.4723 84.2471 18.5058 84.7041 18.5391C85.1606 18.5725 85.6011 18.6059 86.0086 18.6226C86.4166 18.6393 86.7915 18.656 87.0853 18.656C87.5749 18.6727 88.0479 18.6393 88.521 18.5725C88.8143 18.5391 89.0916 18.439 89.3524 18.2887C89.4831 18.2052 89.5972 18.0883 89.6628 17.9381C89.7279 17.7711 89.7769 17.6041 89.7929 17.4371C89.8095 17.2368 89.8255 17.0197 89.8255 16.786C89.8255 16.5189 89.8095 16.2517 89.7929 15.9846C89.7769 15.8009 89.7279 15.6339 89.6298 15.4837C89.5321 15.3501 89.4015 15.2666 89.2548 15.2332C89.0266 15.1664 88.8143 15.133 88.5695 15.0997L85.7313 14.7657C85.2748 14.7156 84.8182 14.582 84.3938 14.3984C84.0679 14.2481 83.7906 14.0144 83.5783 13.7138C83.3826 13.4133 83.252 13.0627 83.1869 12.6953C83.1218 12.2612 83.0893 11.8271 83.0893 11.393C83.0893 10.6083 83.1869 9.9738 83.3991 9.50631C83.5783 9.07218 83.9047 8.70488 84.2961 8.4544C84.7201 8.20397 85.1932 8.03703 85.6827 7.97024C86.2699 7.88675 86.8571 7.85333 87.4442 7.85333C87.9008 7.85333 88.3578 7.87004 88.8308 7.90346C89.3039 7.93683 89.7604 7.97024 90.1684 8.00361C90.5273 8.03703 90.8697 8.08711 91.2121 8.1706V9.79016C90.9187 9.74003 90.5923 9.70666 90.2009 9.65658C89.8094 9.60646 89.418 9.5898 88.994 9.57309C88.5695 9.55638 88.1946 9.53967 87.8357 9.53967C87.3461 9.53967 86.8731 9.55638 86.384 9.62317C86.0902 9.65658 85.7969 9.74003 85.5356 9.89031C85.3238 9.99051 85.1771 10.1909 85.1116 10.4246C85.0625 10.7084 85.0465 10.9923 85.0465 11.2761C85.03 11.5934 85.0625 11.9106 85.1281 12.2111C85.1606 12.4115 85.3073 12.5952 85.503 12.6786C85.7804 12.7788 86.0742 12.8456 86.384 12.879L89.2223 13.2129C89.5482 13.2463 89.8745 13.2964 90.2009 13.3799C90.4782 13.4467 90.739 13.5803 90.9673 13.7639C91.2121 13.9643 91.3918 14.2314 91.4894 14.532C91.571 14.7156 91.6361 14.8993 91.6691 15.0997C91.7016 15.3167 91.7502 15.5504 91.7667 15.8009C91.7992 16.0847 91.8157 16.3686 91.8157 16.6691C91.8318 17.2368 91.7667 17.8045 91.62 18.3555C91.5219 18.7562 91.3262 19.1235 91.0654 19.424C90.8206 19.6912 90.5273 19.9083 90.1844 20.0251C89.8094 20.1587 89.434 20.2589 89.0426 20.2923C88.6186 20.3424 88.1456 20.359 87.6725 20.359Z" fill="white"/>
<path d="M97.8186 20.3591C97.1984 20.3757 96.5787 20.3256 95.975 20.2255C95.5675 20.1587 95.1596 20.0084 94.8172 19.7747C94.5399 19.5743 94.3116 19.2738 94.1975 18.9399C94.0503 18.5057 93.9687 18.0549 93.9362 17.6041C93.9036 17.0698 93.8711 16.4353 93.8711 15.684C93.8711 14.9327 93.8876 14.2982 93.9362 13.7806C93.9527 13.3298 94.0503 12.879 94.1975 12.4449C94.3116 12.111 94.5399 11.8104 94.8172 11.61C95.1596 11.3763 95.5675 11.226 95.975 11.1593C97.1984 10.9756 98.4543 10.9756 99.6942 11.1593C100.102 11.2093 100.51 11.3596 100.869 11.5934C101.146 11.7937 101.374 12.0942 101.488 12.4282C101.635 12.8623 101.733 13.3131 101.75 13.7639C101.798 14.2982 101.815 14.9327 101.815 15.6673C101.815 16.402 101.798 17.0365 101.75 17.5874C101.733 18.0382 101.635 18.489 101.488 18.9232C101.374 19.2571 101.146 19.5576 100.869 19.758C100.526 19.9917 100.118 20.142 99.7108 20.2088C99.0745 20.3089 98.4383 20.3591 97.8186 20.3591ZM97.8186 18.7729C98.2261 18.7896 98.6501 18.7562 99.042 18.6727C99.3028 18.6226 99.5146 18.4723 99.6617 18.2386C99.8084 17.938 99.8735 17.6208 99.89 17.3036C99.9225 16.8862 99.939 16.3352 99.939 15.6673C99.939 14.9995 99.9225 14.4485 99.89 14.0478C99.89 13.7305 99.8084 13.4133 99.6617 13.1127C99.5311 12.8957 99.3028 12.7454 99.058 12.6953C98.6501 12.6285 98.2426 12.5952 97.8346 12.5952C97.4271 12.5785 97.0192 12.6119 96.6112 12.6953C96.3504 12.7287 96.1382 12.8957 95.9915 13.1127C95.8448 13.3966 95.7793 13.7138 95.7633 14.0478C95.7307 14.4485 95.7142 14.9995 95.7142 15.6673C95.7142 16.3352 95.7307 16.8862 95.7633 17.3036C95.7633 17.6375 95.8448 17.9547 95.9915 18.2386C96.1222 18.4557 96.3504 18.6226 96.6112 18.6727C97.0027 18.7562 97.4106 18.7896 97.8186 18.7729Z" fill="white"/>
<path d="M104.979 20.2088V12.7454H103.234V11.1593H104.979V10.0573C104.963 9.57311 105.012 9.10561 105.093 8.6214C105.158 8.30418 105.289 7.98692 105.501 7.73649C105.713 7.51942 105.974 7.35248 106.268 7.26899C106.643 7.15213 107.034 7.08534 107.442 7.06863C107.899 7.03522 108.453 7.01855 109.073 7.01855V8.43775C108.584 8.43775 108.192 8.45442 107.899 8.48783C107.67 8.50454 107.442 8.55462 107.23 8.65477C107.083 8.73827 106.969 8.87184 106.92 9.03882C106.855 9.25589 106.838 9.48961 106.838 9.70668V11.1426H109.073V12.7287H106.838V20.2088H104.979Z" fill="white"/>
<path d="M111.699 20.2088V12.7455H109.937V11.1593H111.699V8.53796H113.543V11.1593H115.614V12.7455H113.543V20.2088H111.699Z" fill="white"/>
<path d="M5.00683 23.5645H4.6806C3.40832 23.5645 2.13603 23.5645 0.863744 23.5645C0.586452 23.5645 0.537518 23.481 0.537518 23.2138C0.553829 19.5239 0.553829 15.8173 0.537518 12.1273C0.504895 10.1905 0.945301 8.28714 1.79349 6.56738C2.72324 4.69736 4.12601 3.12788 5.85501 2.02591C6.96418 1.29126 8.20385 0.773668 9.50874 0.473132C10.6179 0.205988 11.7597 0.122505 12.9015 0.222684C16.6857 0.623401 19.6381 2.44333 21.677 5.74925C23.0146 7.86972 23.6017 10.4076 23.3408 12.9121C22.9819 16.5686 21.3182 19.4738 18.3495 21.5609C17.6644 22.0284 16.9467 22.4458 16.1964 22.7797C15.5276 23.097 14.8099 23.314 14.0759 23.3975C13.4724 23.4476 12.8852 23.5144 12.2817 23.5812C12.0696 23.5978 11.9718 23.5478 11.9718 23.2973C11.9718 21.9616 11.9718 20.6259 11.9718 19.2734C11.9718 19.0731 12.0207 18.9896 12.2327 18.9729C14.8099 18.8227 16.751 17.5704 18.0233 15.2996C18.7083 14.0641 19.0019 12.6449 18.8388 11.2257C18.6105 8.85479 17.436 7.05159 15.4787 5.81603C14.1249 4.9478 12.4937 4.61387 10.9115 4.89772C8.46484 5.31512 6.67059 6.70095 5.59401 8.98836C5.13732 9.95677 4.9742 11.0253 4.99051 12.1106C5.00683 15.7839 4.99051 19.4571 4.99051 23.1303L5.00683 23.5645Z" fill="url(#paint0_radial_28_346)"/>
<path d="M12.885 0.223022C14.3368 0.339898 15.7559 0.72392 17.0771 1.34169C18.3983 1.99286 19.5727 2.89447 20.5514 4.01314C21.5301 5.13181 22.2967 6.41744 22.835 7.80327C23.357 9.20576 23.6016 10.6917 23.5364 12.1944C23.4711 13.6971 23.1612 15.1664 22.5903 16.5522C22.0194 17.9381 21.1712 19.1903 20.111 20.2255C19.0507 21.2607 17.8437 22.0955 16.5062 22.7133C15.8537 23.0305 15.1523 23.2642 14.4346 23.3812C13.7169 23.4479 12.9992 23.5147 12.2816 23.5648L14.4346 23.281C15.136 23.1307 15.8211 22.8969 16.4572 22.5463C17.7622 21.9285 18.9366 21.077 19.9642 20.0418C20.9755 19.0066 21.7911 17.7878 22.3457 16.4354C22.8839 15.083 23.1938 13.6304 23.2428 12.1777C23.308 10.7252 23.0796 9.25584 22.5903 7.88672C22.3457 7.2022 22.0194 6.55101 21.6443 5.91652C21.2691 5.29875 20.845 4.69769 20.3883 4.14671C19.4585 3.02804 18.3168 2.10973 17.0281 1.45857C16.392 1.12464 15.7232 0.857491 15.0218 0.657135C14.3042 0.473471 13.6028 0.323202 12.885 0.223022Z" fill="#D6E50E"/>
<path d="M5.61026 8.97205C5.3819 9.53975 5.23508 10.1241 5.16984 10.7419C5.13722 11.0424 5.1209 11.3429 5.10459 11.6435C5.10459 11.944 5.10459 12.2446 5.1209 12.5618C5.15352 13.7806 5.15352 15.0162 5.15352 16.235C5.15352 17.4539 5.15352 18.6894 5.1209 19.9083C5.08828 21.1271 5.05566 22.3627 5.00672 23.5815V23.5982H4.99041L4.66418 23.5815L4.99041 23.5648L4.9741 23.5815C4.92517 22.3627 4.87623 21.1271 4.85992 19.9083C4.84361 18.6894 4.8273 17.4539 4.8273 16.235C4.8273 15.0162 4.84361 13.7806 4.85992 12.5618C4.85992 12.2613 4.85992 11.944 4.89255 11.6435C4.90885 11.3262 4.94148 11.0257 5.00672 10.7252C5.1209 10.1074 5.31663 9.50633 5.61026 8.97205Z" fill="#D6E50E"/>
<path d="M34.2367 23.5481V23.1808C34.2367 19.5243 34.2367 15.851 34.2367 12.1945C34.2693 10.4079 33.9105 8.62139 33.1765 6.98513C31.6758 3.67923 28.7561 1.27493 25.2818 0.473492C24.1726 0.223044 23.0471 0.139561 21.9216 0.206347C21.5139 0.23974 21.1061 0.323223 20.7146 0.440099C20.9919 0.523582 21.2692 0.590368 21.5302 0.673851C23.6833 1.30832 25.5917 2.59396 27.0271 4.36379C28.7724 6.46755 29.7348 9.15567 29.7348 11.9106C29.7348 15.6507 29.7348 19.4074 29.7348 23.1474V23.5314H34.2367V23.5481Z" fill="url(#paint1_radial_28_346)"/>
<path d="M29.7511 23.5481C31.2517 23.5147 32.736 23.498 34.2367 23.4646L34.1551 23.5481C34.1388 20.9768 34.0899 18.3889 34.0899 15.8176L34.0735 11.9607C34.0572 10.6918 33.8615 9.42282 33.4863 8.20398C33.2906 7.60291 33.0459 7.01855 32.7523 6.45085C32.4587 5.88315 32.1325 5.34887 31.7573 4.84798C31.007 3.82949 30.0936 2.94457 29.0497 2.24332C26.9455 0.807415 24.4498 0.106162 21.9379 0.223037C23.1939 0.106162 24.4662 0.206341 25.7058 0.506878C26.9455 0.807415 28.1199 1.34171 29.1802 2.04296C30.2567 2.74421 31.2028 3.62913 31.9857 4.66432C32.3772 5.18193 32.7197 5.73287 33.0296 6.30057C33.3396 6.86827 33.6005 7.46934 33.7963 8.08712C34.204 9.32267 34.3998 10.625 34.3998 11.9273L34.3835 15.8009C34.3835 18.3722 34.3345 20.9601 34.3182 23.5314V23.6149H34.2367C32.736 23.5982 31.2354 23.5815 29.7511 23.5481Z" fill="#FF974A"/>
<defs>
<radialGradient id="paint0_radial_28_346" cx="0" cy="0" r="1" gradientUnits="userSpaceOnUse" gradientTransform="translate(11.4998 10.9338) scale(14.3964 14.7364)">
<stop stop-color="#66730D"/>
<stop offset="0.18" stop-color="#6D7B11"/>
<stop offset="0.45" stop-color="#81911A"/>
<stop offset="0.78" stop-color="#A2B42A"/>
<stop offset="1" stop-color="#BACF36"/>
</radialGradient>
<radialGradient id="paint1_radial_28_346" cx="0" cy="0" r="1" gradientUnits="userSpaceOnUse" gradientTransform="translate(28.7474 12.6467) scale(9.73948 18.0448)">
<stop stop-color="#A74303"/>
<stop offset="1" stop-color="#EF7103"/>
</radialGradient>
</defs>
</svg>
